#!OML:ASF F:\VICON\USERDATA\INSTALL\rory3\rory3.ASF
:FULLY-SPECIFIED
:DEGREES
46
root 1.1151 17.815 -17.0164 6.172 -3.06993 0.183481
lowerback 5.59753 -0.604509 -1.95344
upperback -0.393486 -0.863743 2.10282
thorax -3.48582 -0.374327 3.34656
lowerneck -17.5233 -5.38815 -10.634
upperneck 17.4497 -6.07854 7.10913
head 8.90454 -2.83583 3.38059
rclavicle 2.5842e-015 1.59028e-015
rhumerus -30.8462 -5.67688 -82.3139
rradius 33.1909
rwrist 4.0041
rhand -9.98888 15.82
rfingers 7.12502
rthumb 15.9944 -13.5397
lclavicle 2.5842e-015 1.59028e-015
lhumerus -30.9983 5.51902 84.9652
lradius 31.6917
lwrist -8.57667
lhand -15.5667 23.195
lfingers 7.12502
lthumb 10.6181 52.9068
rfemur -11.0262 6.08262 21.0592
rtibia 21.343
rfoot -10.9407 -9.55426
rtoes 2.44721
lfemur -11.3452 -1.65064 -21.417
ltibia 20.9117
lfoot -12.0372 6.87865
ltoes 2.50889
47
root 1.11618 17.8135 -17.0178 6.16852 -2.98772 0.235553
lowerback 5.50189 -0.618471 -1.95251
upperback -0.297058 -0.883382 2.05764
thorax -3.33141 -0.388172 3.2975
lowerneck -17.7129 -5.41287 -10.5531
upperneck 17.5129 -6.10837 7.06971
head 8.95887 -2.8448 3.34737
rclavicle 8.44835e-015 -1.86858e-014
rhumerus -30.6273 -5.85434 -82.34
rradius 33.0835
rwrist 4.05863
rhand -9.9709 15.9308
rfingers 7.12502
rthumb 16.0117 -13.4275
lclavicle 8.44835e-015 -1.86858e-014
lhumerus -30.9488 5.42271 84.9591
lradius 31.8932
lwrist -8.47801
lhand -19.0342 18.0691
lfingers 7.12502
lthumb 7.27209 47.9241
rfemur -11.0356 5.99316 21.0127
rtibia 21.3475
rfoot -10.8209 -9.52583
rtoes 2.66427
lfemur -11.3816 -1.65061 -21.4686
ltibia 20.9511
lfoot -12.0289 6.76996
ltoes 2.55198
48
root 1.11697 17.8123 -17.018 6.15605 -2.98215 0.230649
lowerback 5.49364 -0.608271 -1.92454
upperback -0.27881 -0.868439 2.04302
thorax -3.30955 -0.381901 3.26489
lowerneck -17.7443 -5.42057 -10.5436
upperneck 17.522 -6.11919 7.0723
head 8.96841 -2.84833 3.34483
rclavicle -5.66536e-015 1.51076e-014
rhumerus -30.5907 -5.94887 -82.34
rradius 33.0377
rwrist 4.08591
rhand -9.95981 15.8039
rfingers 7.12502
rthumb 16.0223 -13.5536
lclavicle -5.66536e-015 1.51076e-014
lhumerus -31.0172 5.40317 84.9536
lradius 32.0177
lwrist -8.43852
lhand -16.4233 19.2088
lfingers 7.12502
lthumb 9.79179 48.9611
rfemur -11.0246 5.92065 21.0272
rtibia 21.3505
rfoot -10.7478 -9.48197
rtoes 2.8377
lfemur -11.3841 -1.6132 -21.4717
ltibia 20.9894
lfoot -11.9803 6.65506
ltoes 2.98044
49
root 1.11918 17.8123 -17.0182 6.13201 -2.97897 0.25717
lowerback 5.52084 -0.62776 -1.94032
upperback -0.300013 -0.895516 2.04669
thorax -3.3446 -0.394268 3.28061
lowerneck -17.6904 -5.41854 -10.5721
upperneck 17.5355 -6.10911 7.0445
head 8.96255 -2.84967 3.34208
rclavicle -2.56432e-014 1.98785e-015
rhumerus -30.6524 -5.86962 -82.336
rradius 33.0467
rwrist 4.10504
rhand -10.0255 15.9404
rfingers 7.12502
rthumb 15.9591 -13.4221
lclavicle -2.56432e-014 1.98785e-015
lhumerus -31.0556 5.39394 84.9586
lradius 32.0074
lwrist -8.36227
lhand -18.4328 18.8156
lfingers 7.12502
lthumb 7.85266 48.6498
rfemur -10.9955 5.86358 20.991
rtibia 21.3725
rfoot -10.8209 -9.42206
rtoes 2.77104
lfemur -11.3552 -1.63531 -21.5073
ltibia 20.9975
lfoot -11.959 6.60413
ltoes 3.48058
50
root 1.12082 17.8117 -17.0202 6.12726 -2.9924 0.249896
lowerback 5.55134 -0.64189 -1.92464
upperback -0.335061 -0.913053 2.05835
thorax -3.39685 -0.401925 3.28638
lowerneck -17.5253 -5.39875 -10.6135
upperneck 17.4429 -6.08615 7.05418
head 8.90085 -2.8436 3.35696
rclavicle 1.48095e-014 -3.4191e-014
rhumerus -30.7363 -5.81861 -82.3269
rradius 33.1092
rwrist 4.10569
rhand -9.92594 16.2038
rfingers 7.12502
rthumb 16.055 -13.1511
lclavicle 1.48095e-014 -3.4191e-014
lhumerus -31.0823 5.36221 84.9735
lradius 31.9923
lwrist -8.26173
lhand -16.2686 22.2065
lfingers 7.12502
lthumb 9.941 51.9517
rfemur -10.9961 5.90416 20.9868
rtibia 21.3535
rfoot -10.8696 -9.47146
rtoes 2.44855
lfemur -11.3582 -1.63541 -21.5064
ltibia 21.0175
lfoot -11.9846 6.64796
ltoes 3.05865
51
root 1.12056 17.8132 -17.0217 6.13023 -3.00174 0.261606
lowerback 5.60846 -0.629915 -1.94417
upperback -0.386507 -0.899173 2.0444
thorax -3.48318 -0.392773 3.28361
lowerneck -17.3988 -5.39562 -10.6089
upperneck 17.4259 -6.10034 7.07304
head 8.87427 -2.85056 3.36245
rclavicle 3.8266e-015 -3.97569e-016
rhumerus -30.832 -5.79942 -82.3379
rradius 33.1505
rwrist 4.01585
rhand -9.75282 16.1497
rfingers 7.12502
rthumb 16.2217 -13.1916
lclavicle 3.8266e-015 -3.97569e-016
lhumerus -31.1398 5.34063 84.9567
lradius 31.9609
lwrist -8.34476
lhand -19.1082 17.864
lfingers 7.12502
lthumb 7.20073 47.7215
rfemur -11.0052 5.94573 20.9682
rtibia 21.3243
rfoot -10.8867 -9.48838
rtoes 2.68966
lfemur -11.3885 -1.56207 -21.5178
ltibia 21.044
lfoot -12.0171 6.62685
ltoes 2.90924
52
root 1.1206 17.8146 -17.0226 6.14432 -3.03417 0.188814
lowerback 5.6568 -0.612185 -1.89369
upperback -0.449297 -0.871837 2.0555
thorax -3.57793 -0.377756 3.26617
lowerneck -17.2643 -5.37637 -10.5586
upperneck 17.4223 -6.09905 7.05989
head 8.84664 -2.85078 3.35179
rclavicle 1.88348e-014 3.33958e-014
rhumerus -30.9808 -5.71864 -82.3722
rradius 33.2421
rwrist 3.881
rhand -9.69271 15.6494
rfingers 7.12502
rthumb 16.2795 -13.6872
lclavicle 1.88348e-014 3.33958e-014
lhumerus -31.2174 5.4235 84.9045
lradius 31.9099
lwrist -8.56244
lhand -16.242 20.6213
lfingers 7.12502
lthumb 9.96666 50.3653
rfemur -11.0125 5.99139 21.0446
rtibia 21.3155
rfoot -10.9021 -9.48838
rtoes 2.61796
lfemur -11.4121 -1.55876 -21.4394
ltibia 21.0709
lfoot -12.0838 6.75241
ltoes 2.76617
53
root 1.12105 17.8153 -17.0225 6.18396 -3.05641 0.148462
lowerback 5.65089 -0.577897 -1.82208
upperback -0.454405 -0.822133 2.0262
thorax -3.5847 -0.354506 3.19099
lowerneck -17.3407 -5.4184 -10.5318
upperneck 17.4551 -6.16796 7.10666
head 8.87877 -2.87502 3.35324
rclavicle -7.45443e-016 -3.57812e-015
rhumerus -30.9947 -5.7924 -82.4162
rradius 33.289
rwrist 3.85538
rhand -9.77978 15.4056
rfingers 7.12502
rthumb 16.1957 -13.9378
lclavicle -7.45443e-016 -3.57812e-015
lhumerus -31.1939 5.34566 84.8648
lradius 31.933
lwrist -8.52912
lhand -18.8431 18.0488
lfingers 7.12502
lthumb 7.45657 47.8974
rfemur -11.0343 5.98041 21.089
rtibia 21.3071
rfoot -10.8646 -9.48826
rtoes 2.1832
lfemur -11.4656 -1.58339 -21.3955
ltibia 21.1108
lfoot -12.1382 6.80814
ltoes 2.60394
54
root 1.1223 17.8126 -17.0227 6.18182 -2.94095 0.182732
lowerback 5.63637 -0.606005 -1.78336
upperback -0.407677 -0.858485 1.98752
thorax -3.52669 -0.375098 3.13107
lowerneck -17.4603 -5.45954 -10.4992
upperneck 17.466 -6.22392 7.11891
head 8.90852 -2.89525 3.34267
rclavicle -1.88845e-015 3.97569e-016
rhumerus -30.8978 -5.91782 -82.4344
rradius 33.2463
rwrist 3.95857
rhand -9.81591 15.8199
rfingers 7.12502
rthumb 16.1609 -13.5264
lclavicle -1.88845e-015 3.97569e-016
lhumerus -31.1358 5.28594 84.8587
lradius 31.9955
lwrist -8.35317
lhand -15.9256 22.2152
lfingers 7.12502
lthumb 10.272 51.9444
rfemur -11.0118 5.89555 21.0585
rtibia 21.3173
rfoot -10.8795 -9.5434
rtoes 1.9668
lfemur -11.5003 -1.63469 -21.4279
ltibia 21.1439
lfoot -12.1478 6.77051
ltoes 2.57803
55
root 1.12284 17.8105 -17.0228 6.1624 -2.85435 0.177856
lowerback 5.58862 -0.629038 -1.75626
upperback -0.37173 -0.887206 1.98608
thorax -3.46107 -0.391301 3.11527
lowerneck -17.4057 -5.47199 -10.525
upperneck 17.4137 -6.24533 7.15518
head 8.88508 -2.90411 3.35683
rclavicle 2.33572e-015 -2.38542e-015
rhumerus -30.86 -5.99494 -82.4204
rradius 33.2337
rwrist 3.99354
rhand -9.67913 15.8491
rfingers 7.12502
rthumb 16.2926 -13.4864
lclavicle 2.33572e-015 -2.38542e-015
lhumerus -31.0907 5.22231 84.8793
lradius 32.0126
lwrist -8.20632
lhand -19.4179 17.5384
lfingers 7.12502
lthumb 6.90176 47.4059
rfemur -11.0038 5.90844 21.0669
rtibia 21.3499
rfoot -10.9329 -9.63362
rtoes 1.99986
lfemur -11.5035 -1.62779 -21.4128
ltibia 21.1584
lfoot -12.2033 6.68773
ltoes 2.58728
56
root 1.12321 17.8094 -17.0262 6.10178 -2.91386 0.181985
lowerback 5.66475 -0.6135 -1.78391
upperback -0.360168 -0.868987 1.98992
thorax -3.49271 -0.381335 3.13462
lowerneck -17.3418 -5.44641 -10.5182
upperneck 17.3492 -6.2134 7.14619
head 8.84796 -2.89064 3.35746
rclavicle 2.93207e-015 5.56597e-015
rhumerus -30.9052 -5.90656 -82.4481
rradius 33.2971
rwrist 3.88285
rhand -9.62427 15.506
rfingers 7.12502
rthumb 16.3454 -13.8252
lclavicle 2.93207e-015 5.56597e-015
lhumerus -31.1171 5.23615 84.8652
lradius 32.0718
lwrist -8.27931
lhand -15.6064 21.4137
lfingers 7.12502
lthumb 10.5799 51.1274
rfemur -10.9894 5.94993 21.0653
rtibia 21.3903
rfoot -10.9076 -9.59281
rtoes 1.99288
lfemur -11.4512 -1.6762 -21.4238
ltibia 21.1478
lfoot -12.1722 6.8104
ltoes 2.56243
